#!OML:ASF F:\VICON\USERDATA\INSTALL\Justin_Nancy\Justin_Nancy.ASF
:FULLY-SPECIFIED
:DEGREES
111
root -6.95311 16.0067 -1.27889 -22.7371 64.0308 -38.9307
lowerback 14.7186 6.34802 1.02961
upperback 0.0515706 8.84344 2.29404
thorax -8.37052 4.29667 -0.0502576
lowerneck -23.0039 -3.96972 -5.54157
upperneck 12.4406 -4.97976 7.53522
head 7.92544 -1.85841 2.76452
rclavicle 4.8901e-014 -1.74931e-014
rhumerus -40.992 18.7109 -86.2537
rradius 118.395
rwrist -13.1773
rhand -15.3099 31.4482
rfingers 7.12502
rthumb 10.8659 1.74931
lclavicle 4.8901e-014 -1.74931e-014
lhumerus -49.2772 -7.9037 95.6471
lradius 110.021
lwrist 8.9828
lhand -14.7898 6.67876
lfingers 7.12502
lthumb 11.3675 36.3507
rfemur 14.5815 -1.58559 22.6833
rtibia 21.8864
rfoot 15.8933 2.19575
rtoes -22.5799
lfemur -53.998 9.7492 -29.4731
ltibia 64.9276
lfoot -12.5136 6.40577
ltoes 11.8495
112
root -6.72209 16.0474 -1.1534 -22.9936 65.0522 -39.8208
lowerback 14.4412 6.24436 0.815439
upperback -0.057709 8.65903 2.21692
thorax -8.35115 4.21554 0.0487055
lowerneck -23.2597 -4.22787 -6.0662
upperneck 12.4263 -5.18585 7.72333
head 7.99625 -1.9578 2.88282
rclavicle -5.1684e-015 -3.49861e-014
rhumerus -41.4592 18.9122 -86.6932
rradius 117.503
rwrist -13.1668
rhand -15.3905 31.0692
rfingers 7.12502
rthumb 10.7881 1.36622
lclavicle -5.1684e-015 -3.49861e-014
lhumerus -48.8552 -8.02858 96.0504
lradius 109.062
lwrist 9.04165
lhand -13.743 7.28275
lfingers 7.12502
lthumb 12.3769 36.8964
rfemur 13.1042 -0.649767 23.1712
rtibia 23.8189
rfoot 17.8953 2.69996
rtoes -17.9498
lfemur -53.4015 9.26154 -29.4889
ltibia 64.7953
lfoot -13.4065 6.10294
ltoes 12.4412
113
root -6.4974 16.0757 -1.04621 -24.1022 66.0696 -41.423
lowerback 14.4746 5.86289 1.08012
upperback -0.130753 8.1955 2.16644
thorax -8.39865 3.97821 -0.055883
lowerneck -23.5729 -4.22092 -6.5877
upperneck 12.4411 -5.05287 8.05302
head 8.06667 -1.87944 3.0973
rclavicle -2.78299e-015 2.78299e-014
rhumerus -41.9576 19.3122 -87.5855
rradius 116.412
rwrist -13.4632
rhand -14.8166 31.1193
rfingers 7.12502
rthumb 11.3416 1.44594
lclavicle -2.78299e-015 2.78299e-014
lhumerus -48.5371 -8.29672 96.1263
lradius 108.244
lwrist 9.00897
lhand -13.6452 7.72905
lfingers 7.12502
lthumb 12.4712 37.3369
rfemur 11.3582 -1.03811 23.3715
rtibia 26.5907
rfoot 18.8276 3.90089
rtoes -16.6029
lfemur -52.6641 8.79656 -29.4076
ltibia 64.6026
lfoot -14.1728 6.04528
ltoes 11.9542
114
root -6.27681 16.0897 -0.949872 -25.315 67.0996 -42.8831
lowerback 14.6808 5.45765 1.27846
upperback -0.105172 7.68942 2.10613
thorax -8.4484 3.7222 -0.137937
lowerneck -23.8252 -4.15471 -6.84847
upperneck 12.2806 -4.87762 8.19848
head 8.05097 -1.78948 3.21236
rclavicle 6.12257e-014 3.02153e-014
rhumerus -42.3732 19.5124 -88.2565
rradius 115.283
rwrist -13.8461
rhand -13.9232 31.5192
rfingers 7.12502
rthumb 12.2031 1.89515
lclavicle 6.12257e-014 3.02153e-014
lhumerus -47.9123 -8.3117 96.1892
lradius 107.354
lwrist 8.46869
lhand -12.5737 7.59795
lfingers 7.12502
lthumb 13.5041 37.1401
rfemur 9.61016 -2.18785 23.1771
rtibia 29.8713
rfoot 18.3845 4.88712
rtoes -17.4909
lfemur -51.6896 8.32408 -29.451
ltibia 64.3728
lfoot -14.7336 6.23737
ltoes 9.76163
115
root -6.0562 16.1059 -0.857052 -26.0327 68.1509 -43.7815
lowerback 14.9369 5.14058 1.20533
upperback -0.0915215 7.2515 2.01032
thorax -8.57244 3.50754 -0.12781
lowerneck -23.7845 -4.03259 -6.55665
upperneck 11.8201 -4.69706 7.76059
head 7.85396 -1.73924 3.03773
rclavicle 3.45885e-014 1.11319e-014
rhumerus -42.8363 19.3617 -89.068
rradius 114.055
rwrist -13.6397
rhand -13.2928 31.7521
rfingers 7.12502
rthumb 12.8109 2.16521
lclavicle 3.45885e-014 1.11319e-014
lhumerus -47.0963 -8.53405 96.786
lradius 106.36
lwrist 9.31239
lhand -13.5288 7.53764
lfingers 7.12502
lthumb 12.5834 37.1387
rfemur 7.72014 -3.27197 22.741
rtibia 33.3965
rfoot 17.1582 4.66392
rtoes -18.0006
lfemur -50.682 7.81651 -29.6479
ltibia 64.1162
lfoot -15.2003 6.20223
ltoes 8.48714
